<?xml version="1.0" encoding="utf-8"?>
<!-- Generator: Adobe Illustrator 19.0.0, SVG Export Plug-In . SVG Version: 6.00 Build 0)  -->
<svg version="1.1" id="layer" xmlns="http://www.w3.org/2000/svg" xmlns:xlink="http://www.w3.org/1999/xlink" x="0px" y="0px"
	 viewBox="-153 -46 652 652" style="enable-background:new -153 -46 652 652;" xml:space="preserve">
<style type="text/css">
	.st0{fill:#B5B7B8;}
	.st1{fill:#C8102E;}
	.st2{fill:#FFFFFF;}
	.st3{fill:#262425;}
</style>
<polygon class="st0" points="-6.4,187.1 -68.6,166.6 -131.1,187.1 -130.8,363.5 -68.6,384 -6.2,363.5 "/>
<path class="st1" d="M-126.5,360.1l57.8,19l57.8-19V301c-37,13.9-76.1,22.1-115.7,24.2V360.1z"/>
<path d="M-68.6,171.2l-57.8,19v129.6c4.9-0.5,9.8-1,14.9-1.8l5.1-0.8v-74h11.6l-2.1,2.3v69.9l3.3-0.5v-71.7h52.7l-2.1,2.3V301
	l3.3-1.3v-56.6h8.7v53.2c7.2-2.8,13.9-5.9,20.1-9.3v-96.9L-68.6,171.2z"/>
<path class="st2" d="M-109.5,239.6L-109.5,239.6h81.7h0.3l-3.1-4.1v-17.7l1.5-2.3l-2.1-2.6v-4.1l1-1.5l-2.3-3.3h-0.5
	c0.8-1.8,1-3.6,1-5.4v-0.3h-0.3h-0.8c0-0.3,0-0.5,0.3-0.8c0-1-0.5-2.1-1.3-2.1s-1.3,0.8-1.3,2.1c0,0.3,0,0.5,0.3,0.8h-0.8H-36v0.3
	c0,1.8,0.3,3.6,1,5.4h-0.5l-2.1,3.3l1,1.5v4.1l-2.1,2.6l1.3,1.8h-2.6v6.9h-2.3v6.7h-5.9v-4.9l1.8-2.1l0,0h-2.6v-0.5l1.3-1.3
	l-2.3-2.3c0.5-1.5,1-3.1,1-4.9v-0.3h-0.3c-1-0.3-2.1-0.3-3.1,0h-0.3v0.3c0,1.5,0.3,3.3,1,4.9l-3.1,2.3l1.3,1.3v0.5h-3.1v6.9h-5.9
	v-4.9l1.8-2.1l0,0h-4.1v-4.6l1.5-1.8h-2.8v-3.6l1-1.5l-2.6-3.1h-0.5c0.5-1.5,0.8-3.1,0.8-4.6v-0.3h-0.3h-0.5c0-0.3,0-0.5,0-0.8
	c0-1-0.5-1.8-1-1.8c-0.5,0-1,0.8-1,1.8c0,0.3,0,0.5,0,0.8h-0.5h-0.3v0.3c0,1.5,0.3,3.1,0.8,4.6h-0.5l-2.1,3.1l1,1.5v3.6h-3.1v6.2
	h-2.6v7.2h-5.7v-4.9l1.8-1.8l0,0h-2.6v-0.5l1.3-1.3l-2.3-2.3c0.8-1.5,1-3.1,1-4.9v-0.3h-0.3c-1-0.3-2.1-0.3-3.1,0h-0.3v0.3
	c0,1.5,0.3,3.3,1,4.9l-2.3,2.3l1.3,1.3v0.5h-3.3v6.7h-5.9v-4.9l1.8-1.8l0,0H-99v-4.6l2.1-2.3h-2.6l1.3-1.8l-2.1-2.6v-4.1l1-1.5
	l-2.1-3.3h-0.5c0.8-1.8,1-3.6,1-5.4v-0.3h-0.3h-0.8c0-0.3,0-0.5,0-0.8c0-1-0.5-2.1-1.3-2.1c-0.8,0-1.3,0.8-1.3,2.1
	c0,0.3,0,0.5,0,0.8h-0.8h-0.3v0.3c0,1.8,0.3,3.6,1,5.4h-0.5l-2.1,3.3l1,1.5v4.1l-2.1,2.6l1.5,2.3v17.7L-109.5,239.6z M-10.8,287.1
	c-6.2,3.3-12.9,6.4-20.1,9.3v-53.2h-8.7V300l-3.3,1.3v-55.8l2.1-2.3h-52.7v71.7l-3.3,0.5v-69.9l2.1-2.3h-11.6v74l-5.1,0.8
	c-4.9,0.8-9.8,1.3-14.9,1.8v2.3c39.8-3.6,78.7-13.1,115.7-28.3V287.1z"/>
<path class="st3" d="M-48.8,252.4h-17v24.7l3.3-3.3h10.5V266H-63v-2.6h11.1v-8L-48.8,252.4z M-69.9,252.4h-17v24.7l3.3-3.3H-73V266
	h-11.1v-2.6H-73v-8L-69.9,252.4z M-48.8,280.4h-17v24.7l3.3-3.6h10.5v-7.5H-63v-2.6h11.1v-8L-48.8,280.4z M-69.9,280.4h-17v24.7
	l3.3-3.6H-73v-7.5h-11.1v-2.6H-73v-8L-69.9,280.4z"/>
<path class="st2" d="M-77.1,330.3h-9.5l1,1.8v0.3v12.1l-20.6-14.1h-8.7l1.3,2.1v22.4l-1,2.1h9.5l-1-2.1v-16.2l20.6,14.1v2.1
	l-0.8,2.1h9.3l-1-2.1v-22.4L-77.1,330.3z M-61.2,330.3h-9.5l1,1.8v0.3v22.4l-0.8,2.1h9.3l-1-2.1v-22.4L-61.2,330.3z M-21.3,330.3
	h-9.5l1,2.1v18.5h-16.5v-18.5l1-2.1h-9.3l0.8,2.1v19.5l5.9,4.9h19.3l6.2-4.6v-19.8L-21.3,330.3z"/>
<path d="M60.2,270.7l-21.1-28.5V263c-0.3,1.3,0,2.8,0.5,4.1c0.3,0.5,1.3,0.8,3.1,0.8h0.5v2.3H31.4v-2.3h0.5c1.8,0,2.8-0.5,3.1-0.8
	c0.5-1.3,0.8-2.8,0.5-4.1v-23.1c0.3-1.3,0-2.8-0.5-4.1c-0.3-0.5-1.3-0.8-3.1-0.8h-0.5v-2.3h9.3l20.8,28.5v-21.1
	c0.3-1.3,0-2.8-0.5-4.1c-0.3-0.5-1.3-0.8-3.1-0.8h-0.5v-2.3h11.8v2.3h-0.3c-1.8,0-2.8,0.5-3.1,0.8c-0.5,1.3-0.8,2.8-0.5,4.1v30.8
	L60.2,270.7z M85.1,270.7c-3.9,0.3-7.7-1.3-10.8-3.9c-2.8-2.8-4.1-6.7-3.9-10.8c-0.3-3.9,1.3-8,3.9-10.8c6.2-5.1,15.2-5.1,21.3,0
	c2.8,2.8,4.1,6.7,3.9,10.8c0.8,7.5-4.9,13.9-12.1,14.7C86.6,270.7,85.9,270.7,85.1,270.7 M85.1,268.1c2.1,0,3.9-1,4.6-3.1
	c1.3-2.8,1.8-5.9,1.5-9c0.3-3.1-0.3-6.2-1.5-9c-1.3-2.6-4.4-3.6-6.9-2.6c-1,0.5-2.1,1.3-2.6,2.6c-1.3,2.8-1.8,5.9-1.5,9
	c-0.3,3.1,0.3,6.2,1.5,9C81.2,267.1,83,268.1,85.1,268.1 M112.6,250.1v12.6c-0.3,1.3,0,2.8,0.5,4.1c1,0.8,2.3,1,3.6,0.8h0.5v2.3
	h-16.5v-2.3h0.5c1.8,0,2.8-0.5,3.1-0.8c0.5-1.3,0.8-2.8,0.5-4.1v-13.1c0.3-1.3,0-2.8-0.5-4.1c-0.3-0.5-1.3-0.8-3.1-0.8h-0.5v-2.3
	h11.6v5.1c1.5-3.6,5.1-5.9,9-5.9c0.5,0,1,0,1.5,0.3v9h-3.6v-0.5c0-1-0.3-2.1-0.3-3.1c0-0.3-0.5-0.3-1.3-0.3
	C115.7,246.5,113.6,247.8,112.6,250.1 M144.2,269.9c-1.5,0.5-3.1,0.8-4.6,0.8c-2.6,0.3-5.1-0.5-7.2-2.3c-1.8-1.8-2.6-4.4-2.3-6.9
	v-16.7h-3.6v-2.6h3.6v-4.6l7.5-1.3v6.2h6.2v2.6h-6.2v16.7c-0.3,1.8,0,3.3,0.8,4.9c0.8,1,1.8,1.3,3.1,1.3c1,0,1.8-0.3,2.8-0.5
	L144.2,269.9z M159.1,247.3c1-1.8,2.3-3.3,4.1-4.4c1.5-1,3.6-1.5,5.4-1.5c2.3,0,4.4,0.8,5.9,2.3c1.5,1.8,2.3,4.1,2.1,6.4v12.3
	c-0.3,1.3,0,2.8,0.5,4.1c0.3,0.5,1.3,0.8,3.1,0.8h0.5v2.3H165v-2.3h0.5c1.8,0,2.8-0.5,3.1-0.8c0.5-1.3,0.8-2.8,0.5-4.1v-11.6
	c0-1.3,0-2.8-0.8-4.1c-0.5-0.8-1.5-1-2.6-1c-1.3,0-2.3,0.3-3.3,1c-1.3,0.8-2.3,1.8-3.3,3.1v12.6c-0.3,1.3,0,2.8,0.5,4.1
	c0.3,0.5,1.3,0.8,3.1,0.8h0.5v2.3h-15.7v-2.3h0.5c1.8,0,2.8-0.5,3.1-0.8c0.5-1.3,0.8-2.8,0.5-4.1V237c0.3-1.3,0-2.8-0.5-4.1
	c-0.3-0.5-1.3-0.8-3.1-0.8h-0.5v-2.3h11.6L159.1,247.3z M207.7,268.9c-3.1,1-6.4,1.8-9.8,1.8c-4.1,0.3-8.2-1.3-11.3-4.1
	c-2.8-2.8-4.4-6.9-4.1-11.1c-0.3-3.9,1.3-7.5,3.9-10.3c2.6-2.6,6.2-4.1,9.8-3.9c7.7,0,11.8,4.9,11.8,14.4v0.5h-17.5
	c-0.3,2.8,0.8,5.7,2.6,8c2.1,1.8,4.6,2.8,7.5,2.6c2.6,0,5.4-0.8,7.7-1.8L207.7,268.9z M190.5,254h10v-0.8c0.3-2.3-0.3-4.9-1-7.2
	c-0.5-1.3-2.1-2.1-3.6-2.1c-1.8,0-3.3,1-4.1,2.6C190.8,248.8,190.2,251.4,190.5,254 M222.9,250.1v12.6c-0.3,1.3,0,2.8,0.5,4.1
	c1,0.8,2.3,1,3.6,0.8h0.5v2.3h-16.5v-2.3h0.5c1.8,0,2.8-0.5,3.1-0.8c0.5-1.3,0.8-2.8,0.5-4.1v-13.1c0.3-1.3,0-2.8-0.5-4.1
	c-0.3-0.5-1.3-0.8-3.1-0.8h-0.5v-2.3h11.6v5.1c1.5-3.6,5.1-5.9,9-5.9c0.5,0,1,0,1.5,0.3v9h-3.6v-0.5c0-1-0.3-2.1-0.3-3.1
	c0-0.3-0.5-0.3-1.3-0.3C225.7,246.5,223.7,247.8,222.9,250.1 M248.1,247.3c1-1.8,2.3-3.3,4.1-4.4c1.5-1,3.6-1.5,5.4-1.5
	c2.3,0,4.4,0.8,5.9,2.3c1.5,1.8,2.3,4.1,2.1,6.4v12.3c-0.3,1.3,0,2.8,0.5,4.1c0.3,0.5,1.3,0.8,3.1,0.8h0.5v2.3H254v-2.3h0.5
	c1.8,0,2.8-0.5,3.1-0.8c0.5-1.3,0.8-2.8,0.5-4.1v-11.6c0-1.3,0-2.8-0.8-4.1c-0.8-0.8-1.8-1.3-2.6-1c-1.3,0-2.3,0.3-3.3,1
	c-1.3,0.8-2.3,1.8-3.3,3.1v12.6c-0.3,1.3,0,2.8,0.5,4.1c0.3,0.5,1.3,0.8,3.1,0.8h0.5v2.3h-15.7v-2.3h0.5c1.8,0,2.8-0.5,3.1-0.8
	c0.5-1.3,0.8-2.8,0.5-4.1v-13.1c0.3-1.3,0-2.8-0.5-4.1c-0.3-0.5-1.3-0.8-3.1-0.8h-0.5v-2.3h11.6L248.1,247.3z M300,269.9h-15.9v-2.3
	h0.5c1.8,0,2.8-0.5,3.1-0.8c0.5-1.3,0.8-2.8,0.5-4.1v-23.1c0.3-1.3,0-2.8-0.5-4.1c-0.3-0.5-1.3-0.8-3.1-0.8h-0.5v-2.3H300v2.3h-0.5
	c-1.8,0-2.8,0.5-3.1,0.8c-0.5,1.3-0.8,2.8-0.5,4.1v23.1c-0.3,1.3,0,2.8,0.5,4.1c0.3,0.5,1.3,0.8,3.1,0.8h0.5V269.9z M315.7,229.8
	v32.9c-0.3,1.3,0,2.8,0.5,4.1c0.3,0.5,1.3,0.8,3.1,0.8h0.5v2.3h-15.7v-2.3h0.5c1.8,0,2.8-0.5,3.1-0.8c0.5-1.3,0.8-2.8,0.5-4.1v-25.4
	c0.3-1.3,0-2.8-0.5-4.1c-0.3-0.5-1.3-0.8-3.1-0.8h-0.5v-2.3L315.7,229.8z M335,229.8v32.9c-0.3,1.3,0,2.8,0.5,4.1
	c0.3,0.5,1.3,0.8,3.1,0.8h0.5v2.3h-15.7v-2.3h0.5c1.8,0,2.8-0.5,3.1-0.8c0.5-1.3,0.8-2.8,0.5-4.1v-25.4c0.3-1.3,0-2.8-0.5-4.1
	c-0.3-0.5-1.3-0.8-3.1-0.8h-0.5v-2.3L335,229.8z M354,241.9v20.6c-0.3,1.3,0,2.8,0.5,4.1c0.3,0.5,1.3,0.8,3.1,0.8h0.5v2.3h-15.7
	v-2.3h0.5c1.8,0,2.8-0.5,3.1-0.8c0.5-1.3,0.8-2.8,0.5-4.1v-13.1c0.3-1.3,0-2.8-0.5-4.1c-0.3-0.5-1.3-0.8-3.1-0.8h-0.5v-2.3
	L354,241.9z M346.5,229.8h7.5v7.5h-7.5V229.8z M372.5,247.3c1-1.8,2.3-3.3,4.1-4.4c1.5-1,3.6-1.5,5.4-1.5c2.3,0,4.4,0.8,5.9,2.3
	c1.5,1.8,2.3,4.1,2.1,6.4v12.3c-0.3,1.3,0,2.8,0.5,4.1c0.3,0.5,1.3,0.8,3.1,0.8h0.5v2.3h-15.7v-2.3h0.5c1.8,0,2.8-0.5,3.1-0.8
	c0.5-1.3,0.8-2.8,0.5-4.1v-11.6c0-1.3,0-2.8-0.8-4.1c-0.8-0.8-1.8-1.3-2.6-1c-1.3,0-2.3,0.3-3.3,1c-1.3,0.8-2.3,1.8-3.3,3.1v12.6
	c-0.3,1.3,0,2.8,0.5,4.1c0.3,0.5,1.3,0.8,3.1,0.8h0.5v2.3h-15.7v-2.3h0.5c1.8,0,2.8-0.5,3.1-0.8c0.5-1.3,0.8-2.8,0.5-4.1v-13.1
	c0.3-1.3,0-2.8-0.5-4.1c-0.3-0.5-1.3-0.8-3.1-0.8h-0.5v-2.3h11.6L372.5,247.3L372.5,247.3z M410,270.7c-7.5,0.8-13.9-4.9-14.7-12.1
	c0-0.8,0-1.5,0-2.6c-0.3-3.9,1.3-8,3.9-10.8c6.2-5.1,15.2-5.1,21.3,0c2.8,2.8,4.1,6.7,3.9,10.8c0.3,3.9-1,8-3.9,10.8
	C417.7,269.6,413.9,270.9,410,270.7 M410,268.1c2.1,0,3.9-1,4.6-3.1c1.3-2.8,1.8-5.9,1.5-9c0.3-3.1-0.3-6.2-1.5-9
	c-1.3-2.6-4.1-3.6-6.7-2.6c-1,0.5-2.1,1.5-2.6,2.6c-1.3,2.8-1.8,5.9-1.5,9c-0.3,3.1,0.3,6.2,1.5,9C406.2,267.1,408,268.1,410,268.1
	 M438.6,241.9v20.6c-0.3,1.5,0,2.8,0.5,4.4c0.3,0.5,1.3,0.8,3.1,0.8h0.5v2.3H427v-2.3h0.5c1.8,0,2.8-0.5,3.1-0.8
	c0.5-1.3,0.8-2.8,0.5-4.1v-13.4c0.3-1.3,0-2.8-0.5-4.1c-0.3-0.5-1.3-0.8-3.1-0.8H427v-2.3L438.6,241.9z M431.1,229.8h7.5v7.5h-7.5
	V229.8z M446,268.9v-7.2h3.3v0.5c0,1.5,0.3,2.8,1,4.1c1.5,1.5,3.9,2.6,6.2,2.3c1.3,0,2.3-0.5,3.3-1.3c0.8-0.8,1.3-1.8,1.3-3.1
	c0-1.8-1.5-3.3-4.9-4.6l-2.3-1c-5.4-2.1-8-4.9-8-8.5c0-2.3,1.3-4.6,3.1-5.9c2.6-1.5,5.4-2.3,8.5-2.3c2.8,0,5.9,0.5,8.7,1.3v6.7h-3.6
	v-1v-1.3c0-2.6-1.5-3.9-4.6-3.9c-1.3,0-2.6,0.5-3.3,1.3c-1,0.8-1.5,2.1-1.3,3.1c0,1,0.3,1.8,1,2.6c1.3,1,2.8,1.5,4.4,2.1l2.3,0.8
	c5.1,2.1,7.7,4.6,7.7,8c0,2.6-1.3,4.9-3.3,6.4c-2.6,1.8-5.4,2.6-8.5,2.6C453.2,270.9,449.6,270.2,446,268.9 M30.6,280.2h15.9v2.3H46
	c-1.8,0-2.8,0.5-3.1,0.8c-0.5,1.3-0.5,2.8-0.5,4.1v16.5c-0.3,3.3,0.5,6.7,2.1,9.8c1.5,2.1,3.9,3.1,6.4,2.8c2.8,0.3,5.4-0.8,7.2-3.1
	c1.8-2.8,2.6-6.4,2.3-9.8v-16.2c0.3-1.3,0-2.8-0.5-4.1c-0.3-0.5-1.3-0.8-3.1-0.8H56v-2.3h11.8v2.3h-0.5c-1.8,0-2.8,0.5-3.1,0.8
	c-0.5,1.3-0.5,2.8-0.5,4.1v15.4c0.3,4.4-0.8,8.5-3.3,12.1c-2.8,2.8-6.7,4.1-10.8,3.9c-10.3,0-15.2-5.1-15.2-15.4v-15.7
	c0.3-1.3,0-2.8-0.5-4.1c-0.3-0.5-1.3-0.8-3.1-0.8h-0.5L30.6,280.2z M81.8,295.4c1-1.8,2.3-3.3,4.1-4.4c1.5-1,3.6-1.5,5.4-1.5
	c2.3,0,4.4,0.8,5.9,2.3c1.5,1.8,2.3,4.1,2.1,6.4v12.3c-0.3,1.3,0,2.8,0.5,4.1c0.3,0.5,1.3,0.8,3.1,0.8h0.5v2.3H87.7v-2.1h0.5
	c1.8,0,2.8-0.5,3.1-0.8c0.5-1.3,0.8-2.8,0.5-4.1v-11.6c0-1.3,0-2.8-0.8-4.1c-0.8-0.8-1.8-1.3-2.8-1c-1.3,0-2.3,0.3-3.3,1
	c-1.3,0.8-2.3,1.8-3.3,3.1v12.6c-0.3,1.3,0,2.8,0.5,4.1c0.3,0.5,1.3,0.8,3.1,0.8h0.5v2.3H69.9v-2.3h0.5c1.8,0,2.8-0.5,3.1-0.8
	c0.5-1.3,0.5-2.8,0.5-4.1v-13.1c0.3-1.3,0-2.8-0.5-4.1c-0.3-0.5-1.3-0.8-3.1-0.8h-0.5v-2.6h11.8V295.4z M118,290v20.6
	c-0.3,1.3,0,2.8,0.5,4.1c0.3,0.5,1.3,0.8,3.1,0.8h0.5v2.3h-15.7v-2.1h0.5c1.8,0,2.8-0.5,3.1-0.8c0.5-1.3,0.8-2.8,0.5-4.1v-13.1
	c0.3-1.3,0-2.8-0.5-4.1c-0.3-0.5-1.3-0.8-3.1-0.8h-0.5v-2.6H118V290z M110.3,277.6h7.5v7.5h-7.5V277.6z M136.3,318.5l-10-20.8
	c-0.8-1.5-1.5-2.8-2.6-4.1c-0.8-0.5-1.8-1-2.8-0.8h-0.5v-2.6H136v2.6h-0.3c-1.8,0-2.8,0.5-2.8,1c0.3,1.5,0.8,2.8,1.5,4.1l5.7,11.6
	l5.9-11.8c0.8-1.3,1.3-2.8,1.8-4.4c0-0.5-1-0.8-2.8-0.8h-0.5V290h10.3v2.6h-0.5c-1,0-1.8,0.3-2.8,0.8c-1,1.3-1.8,2.8-2.6,4.4
	l-10.3,20.8H136.3z M179.2,316.9c-3.1,1-6.4,1.8-9.8,1.8c-4.1,0.3-8.2-1.3-11.3-4.1c-5.4-5.9-5.7-15.2-0.5-21.3
	c2.6-2.6,6.2-4.1,9.8-3.9c7.7,0,11.8,4.9,11.8,14.4v0.5h-17.7c-0.3,2.8,0.8,5.7,2.6,8c2.1,1.8,4.6,2.8,7.5,2.6
	c2.6,0,5.4-0.8,7.7-1.8V316.9z M161.7,302h10v-0.8c0.3-2.3-0.3-4.9-1-7.2c-0.5-1.3-2.1-2.3-3.6-2.1c-1.8,0-3.3,1-4.1,2.6
	C162.2,296.9,161.7,299.5,161.7,302 M194.1,298.2v12.6c-0.3,1.3,0,2.8,0.5,4.1c0.3,0.5,1.5,0.8,3.6,0.8h0.5v2.6h-16.5v-2.6h0.5
	c1.8,0,2.8-0.5,3.1-0.8c0.5-1.3,0.8-2.8,0.5-4.1v-13.1c0.3-1.3,0-2.8-0.5-4.1c-0.3-0.5-1.3-0.8-3.1-0.8h-0.5v-2.6h11.6v5.4
	c1.5-3.6,5.1-5.9,9-5.9c0.5,0,1,0,1.5,0.3v9h-3.6v-0.5c0-1-0.3-2.1-0.3-3.1c0-0.3-0.5-0.3-1.3-0.3
	C197.2,294.6,195.1,295.9,194.1,298.2 M208,316.9v-7.2h3.3v0.5c0,1.5,0.3,2.8,1,4.1c1.5,1.5,3.9,2.6,6.2,2.3c1.3,0,2.3-0.5,3.3-1.3
	c0.8-0.8,1.3-1.8,1.3-3.1c0-1.8-1.5-3.3-4.9-4.6l-2.3-1c-5.4-2.1-8-4.9-8-8.5c0-2.3,1-4.6,3.1-6.2c2.6-1.5,5.4-2.3,8.5-2.3
	c2.8,0,5.9,0.5,8.7,1.3v6.7h-3.6v-0.5v-1.3c0-2.6-1.5-3.9-4.6-3.9c-1.3,0-2.6,0.5-3.3,1.3c-1,0.8-1.5,2.1-1.3,3.1c0,1,0.3,1.8,1,2.6
	c1.3,1,2.8,1.5,4.1,2.1l2.3,0.8c5.1,2.1,7.7,4.6,7.7,8c0,2.6-1.3,4.9-3.3,6.4c-2.6,1.8-5.4,2.6-8.5,2.6
	C215.4,319,211.6,318.2,208,316.9 M245.8,290v20.6c-0.3,1.3,0,2.8,0.5,4.1c0.3,0.5,1.3,0.8,3.1,0.8h0.5v2.3h-15.7v-2.1h0.5
	c1.8,0,2.8-0.5,3.1-0.8c0.5-1.3,0.8-2.8,0.5-4.1v-13.1c0.3-1.3,0-2.8-0.5-4.1c-0.3-0.5-1.3-0.8-3.1-0.8h-0.5v-2.6h11.6V290z
	 M238.1,277.6h7.5v7.5h-7.5V277.6z M268.9,292.5h-6.2v17c-0.3,1.8,0,3.3,0.8,4.9c0.8,1,1.8,1.3,3.1,1.3c1,0,1.8-0.3,2.8-0.5v2.8
	c-1.5,0.5-3.1,0.8-4.6,0.8c-2.6,0.3-5.1-0.5-7.2-2.3c-1.8-1.8-2.6-4.4-2.3-6.9v-17h-3.6V290h3.6v-4.6l7.5-1.3v5.9h20.6v2.6h-0.5
	c-2.1,0-3.1,0.3-3.1,0.8c0.5,1.5,1,2.8,1.5,4.1l5.1,11.6l6.2-11.6c0.8-1.3,1.5-2.8,1.8-4.1c0-0.5-0.8-0.8-2.6-0.8h-0.5V290h10v2.6
	h-0.5c-1,0-1.8,0.3-2.8,0.8c-1,1.3-1.8,2.8-2.6,4.4l-16.5,30.8h-6.7l9.5-10.3l-9.5-20.6c-0.8-1.5-1.5-2.8-2.3-4.1
	c-0.5-0.5-1-0.5-1.5-0.5"/>
</svg>
